<svg width="24" height="24" viewBox="0 0 24 24" fill="none" xmlns="http://www.w3.org/2000/svg">
<g clip-path="url(#clip0_31_18)">
<path d="M23.3113 0.813599L13.0713 8.39046L14.9755 3.9252L23.3113 0.813599Z" fill="#E17726"/>
<path d="M0.577974 0.82251L8.89146 3.92572L10.6996 8.44952L0.577974 0.82251ZM19.1912 16.9274L23.7171 17.0136L22.1354 22.387L16.6127 20.8665L19.1912 16.9274ZM4.67482 16.9274L7.24369 20.8665L1.73036 22.3871L0.158203 17.0136L4.67482 16.9274Z" fill="#E27625"/>
<path d="M10.4532 7.29724L10.6381 13.2711L5.10352 13.0193L6.67782 10.6442L6.69777 10.6214L10.4532 7.29724ZM13.3544 7.23059L17.1672 10.6216L17.1869 10.6443L18.7612 13.0194L13.2279 13.2711L13.3544 7.23059ZM7.40522 16.9448L10.4272 19.2995L6.91674 20.9943L7.40522 16.9448ZM16.4603 16.9444L16.9386 20.9944L13.4379 19.2993L16.4603 16.9444Z" fill="#E27625"/>
<path d="M13.5155 19.0775L17.0679 20.7976L13.7635 22.368L13.7978 21.3301L13.5155 19.0775ZM10.3491 19.0783L10.0779 21.3131L10.1002 22.3668L6.78809 20.7976L10.3491 19.0783Z" fill="#D5BFB2"/>
<path d="M9.32298 14.0508L10.2513 16.0017L7.09082 15.0758L9.32298 14.0508ZM14.5419 14.051L16.7846 15.0758L13.6138 16.0014L14.5419 14.051Z" fill="#233447"/>
<path d="M7.64745 16.9249L7.1366 21.1235L4.39844 17.0167L7.64745 16.9249ZM16.2191 16.9249L19.4682 17.0167L16.7197 21.1237L16.2191 16.9249ZM18.8419 12.7819L16.4774 15.1917L14.6543 14.3586L13.7814 16.1935L13.2092 13.0381L18.8419 12.7819ZM5.0232 12.7819L10.657 13.0381L10.0847 16.1935L9.21168 14.3589L7.39827 15.1918L5.0232 12.7819Z" fill="#CC6228"/>
<path d="M4.86328 12.2873L7.53852 15.002L7.63118 17.682L4.86328 12.2873ZM19.0045 12.2825L16.2316 17.6867L16.336 15.002L19.0045 12.2825ZM10.5256 12.4527L10.6332 13.1304L10.8993 14.8187L10.7282 20.0041L9.91955 15.8385L9.91927 15.7955L10.5256 12.4527ZM13.3381 12.4433L13.946 15.7955L13.9457 15.8385L13.135 20.0145L13.1029 18.97L12.9764 14.788L13.3381 12.4433Z" fill="#E27525"/>
<path d="M16.5745 14.8942L16.484 17.2226L13.6618 19.4214L13.0913 19.0183L13.7308 15.7244L16.5745 14.8942ZM7.30176 14.8942L10.1356 15.7244L10.7751 19.0183L10.2045 19.4214L7.3823 17.2224L7.30176 14.8942Z" fill="#F5841F"/>
<path d="M6.24805 20.2834L9.85866 21.9942L9.84337 21.2637L10.1455 20.9984H13.719L14.032 21.2627L14.0089 21.9927L17.5967 20.2877L15.8509 21.7304L13.7399 23.1803H10.1165L8.00693 21.7244L6.24805 20.2834Z" fill="#C0AC9D"/>
<path d="M13.2569 18.8497L13.7674 19.2104L14.0665 21.5972L13.6336 21.2317H10.2333L9.80859 21.6046L10.098 19.2106L10.6086 18.8497H13.2569Z" fill="#161616"/>
<path d="M22.6362 1.02332L23.8654 4.71083L23.0977 8.43937L23.6444 8.861L22.9047 9.42536L23.4606 9.85473L22.7245 10.5251L23.1764 10.8524L21.977 12.2531L17.0578 10.8208L17.0152 10.7979L13.4703 7.80761L22.6362 1.02332ZM1.23018 1.02332L10.3962 7.80761L6.85118 10.7979L6.80858 10.8208L1.88934 12.2531L0.689968 10.8524L1.14153 10.5254L0.405832 9.85473L0.96068 9.42582L0.209883 8.85988L0.777129 8.43797L0.000976562 4.71102L1.23018 1.02332Z" fill="#763E1A"/>
<path d="M16.8165 10.5075L22.0287 12.0251L23.7221 17.2441H19.2546L16.1765 17.2829L18.415 12.9194L16.8165 10.5075ZM7.04851 10.5075L5.44968 12.9194L7.68856 17.2829L4.61182 17.2441H0.152344L1.83618 12.0252L7.04851 10.5075ZM15.231 3.90027L13.7731 7.8378L13.4637 13.157L13.3454 14.8242L13.3359 19.0833H10.529L10.5198 14.8322L10.4011 13.1556L10.0916 7.8378L8.6339 3.90027H15.231Z" fill="#F5841F"/>
</g>
<defs>
<clipPath id="clip0_31_18">
<rect width="23.8658" height="22.3729" fill="white" transform="translate(0 0.813599)"/>
</clipPath>
</defs>
</svg>
