<svg width="96" height="84" viewBox="0 0 96 84" fill="none" xmlns="http://www.w3.org/2000/svg">
<path d="M69.667 51.8338V38.8096C69.667 38.0319 69.667 37.643 69.5486 37.2997C69.4438 36.9961 69.2729 36.7196 69.0482 36.4901C68.7941 36.2307 68.4463 36.0568 67.7507 35.7089L48.0003 25.8338M13.3337 30.1671V59.6624C13.3337 61.2741 13.3337 62.0799 13.5851 62.7854C13.8073 63.4091 14.1696 63.9736 14.644 64.4356C15.1806 64.9581 15.9132 65.2938 17.3782 65.9653L45.1115 78.6764C46.1742 79.1635 46.7055 79.407 47.2591 79.5031C47.7496 79.5883 48.2511 79.5883 48.7416 79.5031C49.2951 79.407 49.8264 79.1635 50.8891 78.6764L78.6225 65.9653C80.0875 65.2938 80.82 64.9581 81.3567 64.4356C81.8311 63.9736 82.1933 63.4091 82.4156 62.7854C82.667 62.0799 82.667 61.2741 82.667 59.6625V30.1671M4.66699 25.8338L46.45 4.94228C47.0184 4.65805 47.3027 4.51594 47.6008 4.46001C47.8648 4.41047 48.1358 4.41047 48.3999 4.46001C48.698 4.51594 48.9822 4.65805 49.5507 4.94228L91.3337 25.8338L49.5507 46.7253C48.9822 47.0095 48.698 47.1516 48.3999 47.2076C48.1358 47.2571 47.8648 47.2571 47.6008 47.2076C47.3027 47.1516 47.0184 47.0095 46.45 46.7253L4.66699 25.8338Z" stroke="#117FFF" stroke-width="7.87879" stroke-linecap="round" stroke-linejoin="round"/>
</svg>
